<svg xmlns="http://www.w3.org/2000/svg" width="512" height="512" viewBox="0 0 512 512">
  <rect width="512" height="512" rx="104" fill="#16324F"/>
  <path d="M92 126c61-8 113 9 164 49v235c-49-35-101-49-164-39V126z" fill="#F7F3E8"/>
  <path d="M420 126c-61-8-113 9-164 49v235c49-35 101-49 164-39V126z" fill="#FFFFFF"/>
  <path d="M256 175v235" stroke="#D2B574" stroke-width="18" stroke-linecap="round"/>
  <path d="M126 181c39-2 72 8 99 28M126 235c39-2 72 8 99 28M126 289c39-2 72 8 99 28M386 181c-39-2-72 8-99 28M386 235c-39-2-72 8-99 28M386 289c-39-2-72 8-99 28" fill="none" stroke="#B8C3CC" stroke-width="12" stroke-linecap="round"/>
</svg>
